<svg width="16" height="17" viewBox="0 0 16 17" fill="none" xmlns="http://www.w3.org/2000/svg">
<path d="M3.54135 7.61192C5.48668 4.16192 6.45935 2.43726 8.00002 2.43726C9.54068 2.43726 10.5134 4.16192 12.4587 7.61192L12.7014 8.04126C14.318 10.9079 15.1267 12.3413 14.396 13.3893C13.6654 14.4373 11.8574 14.4373 8.24268 14.4373H7.75735C4.14268 14.4373 2.33468 14.4373 1.60402 13.3893C0.873351 12.3413 1.68202 10.9079 3.29868 8.04126L3.54135 7.61192Z" stroke="white"/>
<path d="M8 5.77057V9.1039" stroke="white" stroke-linecap="round"/>
<path d="M8.00004 11.7706C8.36823 11.7706 8.66671 11.4721 8.66671 11.1039C8.66671 10.7357 8.36823 10.4373 8.00004 10.4373C7.63185 10.4373 7.33337 10.7357 7.33337 11.1039C7.33337 11.4721 7.63185 11.7706 8.00004 11.7706Z" fill="white"/>
</svg>
