<svg width="16" height="17" viewBox="0 0 16 17" fill="none" xmlns="http://www.w3.org/2000/svg">
<path d="M8 0.437256C12.4184 0.437256 16 4.01886 16 8.43726C16 10.559 15.1571 12.5938 13.6569 14.0941C12.1566 15.5944 10.1218 16.4373 8 16.4373C5.87827 16.4373 3.84344 15.5944 2.34314 14.0941C0.842856 12.5938 0 10.559 0 8.43726L0.00319996 8.21326C0.1216 3.89886 3.656 0.437256 8 0.437256ZM10.4 10.1333C10.1878 10.1333 9.98432 10.2176 9.83432 10.3676C9.68432 10.5176 9.6 10.7211 9.6 10.9333V10.9453C9.6 11.1574 9.68432 11.3609 9.83432 11.5109C9.98432 11.6609 10.1878 11.7453 10.4 11.7453C10.6122 11.7453 10.8157 11.6609 10.9657 11.5109C11.1157 11.3609 11.2 11.1574 11.2 10.9453V10.9333C11.2 10.7211 11.1157 10.5176 10.9657 10.3676C10.8157 10.2176 10.6122 10.1333 10.4 10.1333ZM10.9656 5.53166C10.8156 5.38168 10.6122 5.29742 10.4 5.29742C10.1878 5.29742 9.9844 5.38168 9.8344 5.53166L5.0344 10.3317C4.88867 10.4825 4.80804 10.6846 4.80986 10.8944C4.81168 11.1041 4.89582 11.3048 5.04414 11.4531C5.19247 11.6014 5.39312 11.6856 5.60288 11.6874C5.81264 11.6893 6.01472 11.6086 6.1656 11.4629L10.9656 6.66286C11.1156 6.51283 11.1998 6.30938 11.1998 6.09726C11.1998 5.88513 11.1156 5.68168 10.9656 5.53166ZM5.6 5.32126C5.38782 5.32126 5.18434 5.40554 5.03431 5.55557C4.88429 5.7056 4.8 5.90908 4.8 6.12126V6.13326C4.8 6.34543 4.88429 6.54891 5.03431 6.69894C5.18434 6.84894 5.38782 6.93326 5.6 6.93326C5.81218 6.93326 6.01568 6.84894 6.16568 6.69894C6.31568 6.54891 6.4 6.34543 6.4 6.13326V6.12126C6.4 5.90908 6.31568 5.7056 6.16568 5.55557C6.01568 5.40554 5.81218 5.32126 5.6 5.32126Z" fill="#FF6464"/>
</svg>
